# xmcd
#
# Track frame offsets:
#	150
#	16632
#	35537
#	49580
#	65935
#	76450
#	89492
#	101077
#	115840
#	128052
#	143127
#	156240
#
# Disc length: 2344 seconds
#
# Revision: 1
# Processed by: cddbd v1.5.2PL0 Copyright (c) Steve Scherf et al.
# Submitted via: audiograbber 1.83.01
#
DISCID=9e09260c
DTITLE=Alan Spencer Hale - Kiss and tell Alan Spencer Hale
DYEAR=1999
DGENRE=Country
TTITLE0=Somebody Baby
TTITLE1=Lady I Love
TTITLE2=Start At The Bottom
TTITLE3=Kiss And Tell
TTITLE4=A Little Bit Of Love
TTITLE5=24 Hour Call
TTITLE6=Country Music Is Going To Town
TTITLE7=Help Yourself
TTITLE8=High and Dry
TTITLE9=When The Headache Is Over
TTITLE10=The Only Thing Harder
TTITLE11=Missing You That Way
EXTD=
EXTT0=
EXTT1=
EXTT2=
EXTT3=
EXTT4=
EXTT5=
EXTT6=
EXTT7=
EXTT8=
EXTT9=
EXTT10=
EXTT11=
PLAYORDER=
